<?xml version="1.0" encoding="UTF-8" standalone="no"?>
<!-- Created with Inkscape (http://www.inkscape.org/) -->

<svg
   xmlns:dc="http://purl.org/dc/elements/1.1/"
   xmlns:cc="http://creativecommons.org/ns#"
   xmlns:rdf="http://www.w3.org/1999/02/22-rdf-syntax-ns#"
   xmlns:svg="http://www.w3.org/2000/svg"
   xmlns="http://www.w3.org/2000/svg"
   xmlns:sodipodi="http://sodipodi.sourceforge.net/DTD/sodipodi-0.dtd"
   xmlns:inkscape="http://www.inkscape.org/namespaces/inkscape"
   width="59.531254mm"
   height="12.350104mm"
   viewBox="0 0 59.531254 12.350104"
   version="1.1"
   id="svg2963"
   inkscape:version="0.92.4 (5da689c313, 2019-01-14)"
   sodipodi:docname="logo-login.svg">
  <defs
     id="defs2957" />
  <sodipodi:namedview
     id="base"
     pagecolor="#ffffff"
     bordercolor="#666666"
     borderopacity="1.0"
     inkscape:pageopacity="0.0"
     inkscape:pageshadow="2"
     inkscape:zoom="2"
     inkscape:cx="144.44592"
     inkscape:cy="-20.504755"
     inkscape:document-units="mm"
     inkscape:current-layer="layer1"
     showgrid="false"
     fit-margin-top="0"
     fit-margin-left="0"
     fit-margin-right="0"
     fit-margin-bottom="0"
     inkscape:window-width="1366"
     inkscape:window-height="705"
     inkscape:window-x="-8"
     inkscape:window-y="-8"
     inkscape:window-maximized="1" />
  <metadata
     id="metadata2960">
    <rdf:RDF>
      <cc:Work
         rdf:about="">
        <dc:format>image/svg+xml</dc:format>
        <dc:type
           rdf:resource="http://purl.org/dc/dcmitype/StillImage" />
        <dc:title></dc:title>
      </cc:Work>
    </rdf:RDF>
  </metadata>
  <g
     inkscape:label="Layer 1"
     inkscape:groupmode="layer"
     id="layer1"
     transform="translate(77.630733,-85.078306)">
    <g
       id="g913"
       transform="matrix(1.1669572,0,0,1.1669572,12.961006,-16.266369)">
      <rect
         ry="0.11432207"
         rx="0.09530101"
         y="86.845406"
         x="-77.63073"
         height="10.583"
         width="51.014084"
         id="rect826"
         style="fill:none;fill-rule:evenodd;stroke-width:0.28832707" />
      <rect
         style="fill:none;fill-rule:evenodd;stroke-width:0.14846306"
         id="rect9999"
         width="10.583"
         height="10.583"
         x="-77.630714"
         y="86.845238"
         inkscape:export-filename="C:\Users\Thiago Campos\Desktop\favico.png"
         inkscape:export-xdpi="92"
         inkscape:export-ydpi="92" />
      <g
         transform="matrix(0.88692967,0,0,0.88692967,31.149867,-228.53756)"
         id="g10019">
        <path
           inkscape:connector-curvature="0"
           id="path10005"
           d="m -114.26818,366.19671 c -0.20666,-0.0681 -0.39906,-0.19918 -0.65134,-0.44381 -0.19011,-0.18435 -0.31182,-0.35215 -0.38053,-0.52464 -0.0334,-0.0838 -0.0362,-0.1013 -0.0362,-0.22182 8e-5,-0.1492 0.0163,-0.21685 0.0845,-0.35312 0.0617,-0.12313 0.11497,-0.18772 0.31895,-0.38643 l 0.18115,-0.17648 -9e-4,-0.0567 c -4.8e-4,-0.0312 -0.012,-0.16372 -0.0256,-0.29451 l -0.0247,-0.23778 -0.20476,-0.0414 c -0.22318,-0.0451 -0.26822,-0.0627 -0.30208,-0.11777 -0.0123,-0.02 -0.061,-0.15671 -0.10827,-0.30373 -0.0472,-0.14703 -0.0984,-0.30573 -0.11362,-0.35268 -0.0305,-0.0939 -0.0333,-0.13521 -0.0129,-0.18972 0.007,-0.0199 0.10135,-0.12996 0.20863,-0.24457 0.29105,-0.31093 0.36805,-0.40436 0.36792,-0.44642 -1.3e-4,-0.0447 -0.0426,-0.42843 -0.048,-0.43385 -0.002,-0.002 -0.0623,0.0341 -0.13356,0.0807 -0.13298,0.087 -0.14322,0.0908 -0.279,0.10183 -0.0938,0.008 -0.64624,-0.011 -0.84863,-0.0286 -0.55744,-0.0485 -1.15152,-0.15655 -1.74135,-0.31659 -0.4774,-0.12953 -1.03246,-0.31691 -1.15346,-0.38938 -0.0818,-0.049 -0.1795,-0.14443 -0.23753,-0.23207 -0.11176,-0.16876 -0.1573,-0.33281 -0.3079,-1.10908 -0.0273,-0.14077 -0.0609,-0.30714 -0.0746,-0.3697 -0.072,-0.32844 0.004,-0.57144 0.22499,-0.72381 0.10585,-0.0728 0.34236,-0.1664 1.69302,-0.66982 1.58297,-0.59002 1.84964,-0.68609 2.01969,-0.72762 0.49571,-0.12104 0.94649,-0.13232 1.81356,-0.0454 0.69585,0.0698 1.55111,0.17058 1.65511,0.19506 0.22029,0.0519 0.4031,0.23067 0.45989,0.4498 0.0259,0.0999 0.0266,1.30889 9e-4,1.44396 -0.0189,0.0989 -0.0582,0.18686 -0.13683,0.30574 -0.11525,0.17424 -0.19376,0.39366 -0.24047,0.67209 -0.0251,0.14964 -0.028,0.57318 -0.005,0.80626 0.0143,0.14792 0.0602,0.48437 0.0808,0.59151 0.0691,0.3603 0.11246,0.56315 0.22764,1.0636 0.25791,1.12056 0.29048,1.32747 0.29016,1.8428 -1.7e-4,0.24712 -0.005,0.36071 -0.0207,0.47777 -0.0991,0.74182 -0.3575,1.23877 -0.72635,1.39685 l -0.0718,0.0308 -0.8304,0.003 -0.8304,0.003 z"
           style="fill:#470966;fill-opacity:1;stroke:#ffffff;stroke-width:1.19062495;stroke-miterlimit:4;stroke-dasharray:none;stroke-opacity:1" />
        <path
           style="fill:#470966;fill-opacity:1;stroke:#470966;stroke-width:0.39687499;stroke-miterlimit:4;stroke-dasharray:none;stroke-opacity:1"
           d="m -114.26818,366.19671 c -0.20666,-0.0681 -0.39906,-0.19918 -0.65134,-0.44381 -0.19011,-0.18435 -0.31182,-0.35215 -0.38053,-0.52464 -0.0334,-0.0838 -0.0362,-0.1013 -0.0362,-0.22182 8e-5,-0.1492 0.0163,-0.21685 0.0845,-0.35312 0.0617,-0.12313 0.11497,-0.18772 0.31895,-0.38643 l 0.18115,-0.17648 -8.9e-4,-0.0567 c -4.8e-4,-0.0312 -0.012,-0.16372 -0.0256,-0.29451 l -0.0247,-0.23778 -0.20476,-0.0414 c -0.22318,-0.0451 -0.26822,-0.0627 -0.30208,-0.11777 -0.0123,-0.02 -0.061,-0.15671 -0.10827,-0.30373 -0.0472,-0.14703 -0.0984,-0.30573 -0.11362,-0.35268 -0.0305,-0.0939 -0.0333,-0.13521 -0.0129,-0.18972 0.007,-0.0199 0.10135,-0.12996 0.20863,-0.24457 0.29105,-0.31093 0.36805,-0.40436 0.36792,-0.44642 -1.3e-4,-0.0447 -0.0426,-0.42843 -0.048,-0.43385 -0.002,-0.002 -0.0623,0.0341 -0.13356,0.0807 -0.13298,0.087 -0.14322,0.0908 -0.279,0.10183 -0.0938,0.008 -0.64625,-0.011 -0.84864,-0.0286 -0.55744,-0.0485 -1.15152,-0.15655 -1.74135,-0.31659 -0.4774,-0.12953 -1.03246,-0.31691 -1.15346,-0.38938 -0.0818,-0.049 -0.1795,-0.14443 -0.23753,-0.23207 -0.11176,-0.16876 -0.1573,-0.33281 -0.3079,-1.10908 -0.0273,-0.14077 -0.0609,-0.30714 -0.0746,-0.3697 -0.072,-0.32844 0.004,-0.57144 0.22499,-0.72381 0.10585,-0.0728 0.34236,-0.1664 1.69302,-0.66982 1.58297,-0.59002 1.84964,-0.68609 2.01969,-0.72762 0.49571,-0.12104 0.94649,-0.13232 1.81356,-0.0454 0.69585,0.0698 1.55111,0.17058 1.65511,0.19506 0.22029,0.0519 0.4031,0.23067 0.45989,0.4498 0.0259,0.0999 0.0266,1.30889 8.9e-4,1.44396 -0.0189,0.0989 -0.0582,0.18686 -0.13683,0.30574 -0.11525,0.17424 -0.19376,0.39366 -0.24047,0.67209 -0.0251,0.14964 -0.028,0.57318 -0.005,0.80626 0.0143,0.14792 0.0602,0.48437 0.0808,0.59151 0.0691,0.3603 0.11246,0.56315 0.22764,1.0636 0.25791,1.12056 0.29048,1.32747 0.29016,1.8428 -1.7e-4,0.24712 -0.005,0.36071 -0.0207,0.47777 -0.0991,0.74182 -0.3575,1.23877 -0.72635,1.39685 l -0.0718,0.0308 -0.8304,0.003 -0.8304,0.003 z"
           id="path10007"
           inkscape:connector-curvature="0" />
        <path
           inkscape:connector-curvature="0"
           style="fill:#ff098c;fill-opacity:1;stroke:#000000;stroke-width:0.01137533;stroke-opacity:1"
           d="m -112.55493,365.78161 c 0.13171,-0.0835 0.27186,-0.35526 0.35624,-0.6907 0.0709,-0.28198 0.10643,-0.68403 0.086,-0.97428 -0.0243,-0.34557 -0.0631,-0.55471 -0.26338,-1.41938 -0.24814,-1.0714 -0.32414,-1.52971 -0.35106,-2.11708 -0.0126,-0.27594 -0.003,-0.45366 0.0349,-0.67837 0.0124,-0.0724 0.0211,-0.13299 0.0194,-0.13471 -0.002,-0.002 -0.43816,0.29363 -0.96986,0.65635 -0.5317,0.36271 -0.9736,0.66357 -0.98201,0.66857 -0.0126,0.007 -0.008,0.0642 0.0232,0.32031 l 0.0385,0.31123 0.0792,0.0138 c 0.0435,0.008 0.16108,0.027 0.26118,0.043 0.1001,0.0161 0.30998,0.0501 0.46639,0.0756 0.15641,0.0255 0.33723,0.0534 0.40182,0.062 0.094,0.0125 0.12517,0.0215 0.15626,0.0453 0.0779,0.0594 0.0833,0.0877 0.0727,0.38228 -0.0188,0.52231 -0.1104,0.81821 -0.32282,1.04289 -0.0496,0.0525 -0.11177,0.11026 -0.1381,0.12837 -0.0733,0.0504 -0.19739,0.1097 -0.27474,0.1312 l -0.0697,0.0194 -0.22219,-0.0438 c -0.12221,-0.0241 -0.22424,-0.0415 -0.22674,-0.0386 -0.002,0.003 0.002,0.0692 0.0111,0.14741 0.009,0.0782 0.0168,0.2113 0.0183,0.29576 0.004,0.2178 -10e-4,0.22699 -0.28181,0.5062 -0.2471,0.24604 -0.28844,0.30601 -0.29865,0.43315 -0.005,0.0652 -0.002,0.08 0.0346,0.15707 0.0528,0.11107 0.11396,0.19354 0.24042,0.32388 0.15583,0.16062 0.32115,0.28497 0.45022,0.33865 l 0.0626,0.026 0.76845,4.9e-4 0.76845,4.8e-4 0.0512,-0.0325 z"
           id="path10009" />
        <path
           inkscape:connector-curvature="0"
           style="fill:#ff098c;fill-opacity:1;stroke:#000000;stroke-width:0.01137533;stroke-opacity:1"
           d="m -113.86668,363.20753 c 0.17023,-0.0812 0.27096,-0.25432 0.30334,-0.52122 l 0.008,-0.0621 -0.0253,0.0223 c -0.0139,0.0123 -0.1,0.0901 -0.19125,0.17295 -0.10833,0.0983 -0.18318,0.1573 -0.21561,0.16984 -0.0496,0.0192 -0.0508,0.019 -0.54601,-0.0683 -0.27299,-0.0481 -0.50223,-0.0874 -0.50942,-0.0874 -0.016,1.3e-4 0.0453,0.2045 0.0649,0.21665 0.0122,0.008 0.1402,0.0333 0.73307,0.14733 0.12513,0.0241 0.24469,0.0442 0.26569,0.0447 0.0211,5.2e-4 0.0717,-0.0151 0.11306,-0.0348 z"
           id="path10011" />
        <path
           inkscape:connector-curvature="0"
           style="fill:#ff098c;fill-opacity:1;stroke:#000000;stroke-width:0.01137533;stroke-opacity:1"
           d="m -113.94178,362.42174 c 0.0938,-0.089 0.16616,-0.16313 0.1609,-0.16482 -0.005,-0.002 -0.20664,-0.0337 -0.44752,-0.0711 l -0.43795,-0.0681 -0.0387,0.0423 c -0.0213,0.0233 -0.0846,0.0925 -0.14071,0.15379 -0.0561,0.0613 -0.10014,0.11305 -0.0978,0.11501 0.003,0.003 0.78703,0.14921 0.82159,0.15343 0.005,6.5e-4 0.0864,-0.0716 0.18019,-0.16057 z"
           id="path10013" />
        <path
           inkscape:connector-curvature="0"
           style="fill:#ffffff;fill-opacity:1;stroke:#000000;stroke-width:0.01137533;stroke-opacity:1"
           d="m -115.59376,361.13598 c -8e-4,-0.0354 -0.22439,-1.52245 -0.22971,-1.52777 -0.003,-0.003 -0.17428,-0.0336 -0.37996,-0.0674 -0.62796,-0.10317 -1.81178,-0.31133 -2.77924,-0.48869 -0.22176,-0.0407 -0.40567,-0.0715 -0.40868,-0.0684 -0.007,0.007 0.0157,0.15276 0.0437,0.27573 0.0124,0.0546 0.0539,0.26045 0.0922,0.45753 0.0769,0.39535 0.12537,0.58094 0.17307,0.66234 0.0411,0.0702 0.10829,0.10235 0.46882,0.22459 1.06685,0.36172 1.97413,0.53358 2.87512,0.54459 0.10954,10e-4 0.14495,-0.002 0.14471,-0.0125 z"
           id="path10015" />
        <path
           inkscape:connector-curvature="0"
           style="fill:#ff098c;fill-opacity:1;stroke:#000000;stroke-width:0.01137533;stroke-opacity:1"
           d="m -114.99969,360.86438 c 0.0958,-0.064 0.407,-0.27559 0.69167,-0.47019 0.28466,-0.1946 0.83823,-0.57297 1.23013,-0.84082 0.78405,-0.53587 0.73793,-0.49716 0.76076,-0.63842 0.0151,-0.0933 0.0145,-1.19338 -6.7e-4,-1.24795 -0.015,-0.0539 -0.0785,-0.10716 -0.15311,-0.12836 -0.0733,-0.0208 -0.95595,-0.13127 -1.40485,-0.17577 -0.54389,-0.0539 -0.80451,-0.0713 -1.08066,-0.0721 -0.49622,-0.001 -0.73265,0.0447 -1.29192,0.25213 -2.49009,0.92366 -2.86092,1.06307 -2.85124,1.07193 0.005,0.004 0.0543,0.0154 0.11061,0.0251 0.0563,0.01 0.28921,0.0514 0.51757,0.0927 0.80867,0.14631 1.51568,0.26931 2.19544,0.38195 0.37852,0.0627 0.70231,0.11962 0.71955,0.12643 0.0432,0.017 0.0961,0.0802 0.11032,0.13167 0.007,0.0236 0.0607,0.3807 0.12032,0.79362 0.12915,0.89408 0.11804,0.82755 0.13694,0.8203 0.008,-0.003 0.0934,-0.0581 0.18914,-0.12215 z"
           id="path10017" />
      </g>
      <g
         style="fill:#ffffff"
         id="g10023"
         transform="matrix(0.99996853,0,0,0.99996853,44.069572,-270.20879)">
        <path
           inkscape:connector-curvature="0"
           id="path10021"
           d="m -120.63263,363.33248 v 1.21697 1.21751 h 0.30127 0.30179 v -1.21751 -1.21697 h -0.30179 z m 1.01234,0 v 1.2175 1.21698 l 0.20153,-0.003 0.20206,-0.003 0.003,-1.21441 0.003,-1.21438 h -0.20515 z m 0.80718,0 v 1.20975 c 0,0.66527 0.004,1.21296 0.008,1.21698 0.005,0.005 0.14104,0.007 0.30386,0.005 l 0.29662,-0.003 0.003,-1.21441 0.003,-1.21438 h -0.30696 z m 1.02423,0 v 1.21697 1.21751 h 0.19895 0.19896 v -1.21751 -1.21697 h -0.19896 z"
           style="fill:#ffffff;fill-opacity:1;stroke:none;stroke-width:0.01137533;stroke-opacity:1" />
      </g>
      <g
         transform="matrix(0.99996853,0,0,0.99996853,-142.88416,-54.604755)"
         aria-label="BipeiPostei"
         style="font-style:normal;font-variant:normal;font-weight:normal;font-stretch:normal;font-size:7.81684446px;line-height:1.25;font-family:GloberW01-HeavyItalic;-inkscape-font-specification:GloberW01-HeavyItalic;text-align:start;letter-spacing:-0.09771055px;word-spacing:0px;text-anchor:start;fill:#ffffff;fill-opacity:1;stroke:none;stroke-width:0.1954211"
         id="text10029">
        <path
           id="path973"
           style="font-style:normal;font-variant:normal;font-weight:normal;font-stretch:normal;font-family:GloberW01-HeavyItalic;-inkscape-font-specification:GloberW01-HeavyItalic;text-align:start;text-anchor:start;fill:#ffffff;stroke-width:0.1954211"
           d="m 114.89838,144.9874 q -0.0782,0.0156 -0.18761,0.0313 -0.0938,0.0156 -0.22669,0.0235 -0.13288,0.008 -0.30485,0.008 -0.17979,0 -0.31268,-0.008 -0.12507,-0.008 -0.21105,-0.0235 -0.10162,-0.0156 -0.17979,-0.0313 l 0.25796,-1.21161 q 0.0782,-0.0156 0.1876,-0.0313 0.0938,-0.0156 0.22669,-0.0234 0.13289,-0.008 0.31267,-0.008 0.17197,0 0.29704,0.008 0.13289,0.008 0.21888,0.0234 0.10161,0.0156 0.17978,0.0313 z m -0.97711,4.62757 q -0.086,0.0156 -0.19542,0.0313 -0.0938,0.0156 -0.22669,0.0234 -0.13288,0.008 -0.30486,0.008 -0.17978,0 -0.31267,-0.008 -0.12507,-0.008 -0.21105,-0.0234 -0.10162,-0.0156 -0.17197,-0.0313 l 0.85985,-4.04131 q 0.0704,-0.0156 0.17979,-0.0313 0.086,-0.0156 0.21887,-0.0235 0.1407,-0.008 0.32049,-0.008 0.17197,0 0.30486,0.008 0.13288,0.008 0.21887,0.0235 0.10162,0.0156 0.17978,0.0313 z m -3.61419,-1.61809 q -0.0313,0.18761 0,0.31268 0.0391,0.11725 0.11725,0.1876 0.086,0.0703 0.20324,0.10162 0.12507,0.0234 0.27359,0.0234 0.16415,0 0.31267,-0.0234 0.14852,-0.0313 0.25796,-0.0704 0.13289,-0.0391 0.2345,-0.0938 0.13289,0.13288 0.20324,0.39866 0.0782,0.26577 0.0313,0.53936 -0.14852,0.10943 -0.35957,0.19542 -0.17979,0.0703 -0.45338,0.12507 -0.27359,0.0625 -0.64098,0.0625 -1.00056,0 -1.3914,-0.57844 -0.39084,-0.57845 -0.14852,-1.70407 0.2345,-1.08655 0.82077,-1.56337 0.58626,-0.47683 1.46956,-0.47683 0.37521,0 0.66444,0.10162 0.29704,0.10162 0.47682,0.31267 0.18761,0.21106 0.25014,0.52373 0.0625,0.31267 -0.0234,0.73478 -0.0938,0.4143 -0.17979,0.6488 -0.0469,0.1407 -0.086,0.24232 z m 1.07091,-1.03964 q 0.0469,-0.2345 -0.0156,-0.38302 -0.0547,-0.15634 -0.25795,-0.15634 -0.0938,0 -0.17979,0.0313 -0.086,0.0313 -0.17197,0.11725 -0.0782,0.086 -0.15634,0.24232 -0.0704,0.14852 -0.13288,0.38303 h 0.85985 q 0.0156,-0.0625 0.0235,-0.11725 0.0156,-0.0547 0.0313,-0.11726 z m -3.69798,1.21943 q -0.0703,0.32049 0.0391,0.42993 0.11726,0.10162 0.36739,0.10162 0.0704,0 0.13289,0 0.0625,-0.008 0.11725,-0.0156 0.0547,-0.008 0.10944,-0.0234 0.0156,0.0547 0.0234,0.14071 0.008,0.0703 0,0.17197 0,0.10162 -0.0313,0.24232 -0.0469,0.19542 -0.0938,0.32049 -0.0313,0.0703 -0.0547,0.11725 -0.39866,0.0938 -0.8364,0.0938 -0.41429,0 -0.68788,-0.0782 -0.27359,-0.086 -0.42211,-0.27359 -0.1407,-0.18761 -0.16416,-0.48465 -0.0234,-0.29704 0.0704,-0.71915 l 0.35175,-1.64154 h -0.53936 q -0.008,-0.0547 0,-0.13288 0,-0.13289 0.0469,-0.35958 0.0235,-0.11725 0.0547,-0.21105 0.0313,-0.0938 0.0547,-0.15634 0.0313,-0.0782 0.0547,-0.13288 h 0.53936 l 0.14852,-0.71915 q 0.14852,-0.0625 0.32831,-0.10944 0.17978,-0.0469 0.3752,-0.0703 0.19543,-0.0234 0.39085,-0.0234 0.19542,-0.008 0.37521,0.008 l -0.19543,0.91458 h 0.75824 q 0.008,0.0547 0,0.13288 -0.008,0.0625 -0.0234,0.15634 -0.008,0.086 -0.0313,0.20324 -0.0234,0.10943 -0.0547,0.20323 -0.0234,0.0938 -0.0469,0.15634 -0.0313,0.0782 -0.0547,0.1407 h -0.75823 z m -4.9604,-1.47738 q 0.13289,-0.63317 0.58626,-0.94584 0.4612,-0.32049 1.30542,-0.32049 0.33612,0 0.58626,0.0391 0.25796,0.0391 0.42211,0.086 0.19542,0.0547 0.32831,0.12507 -0.0391,0.25014 -0.16416,0.49246 -0.11725,0.24232 -0.3283,0.41429 -0.13289,-0.0313 -0.27359,-0.0625 -0.12507,-0.0234 -0.28923,-0.0391 -0.16415,-0.0234 -0.35175,-0.0234 -0.27359,0 -0.39866,0.0704 -0.11726,0.0704 -0.14852,0.18761 -0.0156,0.086 0.0469,0.1407 0.0703,0.0547 0.1876,0.10162 0.11725,0.0469 0.27359,0.0938 0.15634,0.0469 0.32049,0.10944 0.16416,0.0625 0.31268,0.17197 0.14852,0.10162 0.24232,0.26577 0.10162,0.15634 0.1407,0.37521 0.0391,0.21106 -0.0234,0.49246 -0.13289,0.64098 -0.6019,0.96147 -0.46119,0.32049 -1.35231,0.32049 -0.35958,0 -0.63317,-0.0547 -0.27358,-0.0469 -0.45337,-0.10944 -0.21106,-0.0703 -0.36739,-0.16415 0.0625,-0.29704 0.1876,-0.5081 0.11725,-0.21887 0.31267,-0.39866 0.14071,0.0547 0.29704,0.086 0.13289,0.0391 0.31268,0.0625 0.1876,0.0234 0.39084,0.0234 0.29704,0 0.42993,-0.0625 0.13288,-0.0625 0.16415,-0.19542 0.0156,-0.0782 -0.0391,-0.13289 -0.0547,-0.0625 -0.16416,-0.10943 -0.10162,-0.0469 -0.24232,-0.0938 -0.1407,-0.0469 -0.28922,-0.10162 -0.16416,-0.0625 -0.32831,-0.15633 -0.15634,-0.10162 -0.26577,-0.25796 -0.10944,-0.15634 -0.15634,-0.36739 -0.0391,-0.21887 0.0234,-0.51591 z m -4.441798,0.78168 q 0.125069,-0.58626 0.343941,-0.9771 0.218871,-0.39866 0.515911,-0.63317 0.304857,-0.24232 0.687883,-0.33612 0.383023,-0.10162 0.828583,-0.10162 0.44556,0 0.78169,0.1407 0.33612,0.13289 0.53154,0.42211 0.20324,0.28141 0.25014,0.71915 0.0547,0.42993 -0.0704,1.01619 -0.12507,0.58626 -0.34394,0.97711 -0.21106,0.39084 -0.51591,0.62534 -0.29704,0.22669 -0.68007,0.32831 -0.37521,0.0938 -0.820767,0.0938 -0.445561,0 -0.789502,-0.13288 -0.336124,-0.14071 -0.539362,-0.4143 -0.195421,-0.2814 -0.250139,-0.71133 -0.05472,-0.42992 0.07035,-1.01619 z m 2.423218,0.11725 q 0.0703,-0.3283 0.086,-0.53936 0.0156,-0.21105 -0.0234,-0.3283 -0.0313,-0.12507 -0.10944,-0.17198 -0.0782,-0.0547 -0.20324,-0.0547 -0.12507,0 -0.2345,0.0547 -0.10162,0.0469 -0.18761,0.17198 -0.08598,0.11725 -0.164149,0.3283 -0.07817,0.21106 -0.14852,0.53936 -0.07035,0.3205 -0.08598,0.53155 -0.0078,0.21106 0.02345,0.33612 0.03908,0.12507 0.12507,0.17979 0.08599,0.0469 0.211055,0.0469 0.125064,0 0.226684,-0.0469 0.10162,-0.0547 0.1876,-0.17979 0.086,-0.12506 0.15634,-0.33612 0.0704,-0.21105 0.1407,-0.53155 z m -5.768217,2.00893 q -0.08598,0.0234 -0.203238,0.0391 -0.101619,0.0156 -0.242322,0.0234 -0.132886,0.008 -0.304857,0.008 -0.179787,0 -0.320491,-0.008 -0.132886,-0.008 -0.226688,-0.0234 -0.109436,-0.0156 -0.187604,-0.0391 l 1.180343,-5.55777 h 2.227801 q 0.453377,0 0.773867,0.1407 0.328308,0.1407 0.515912,0.39866 0.187604,0.25014 0.234505,0.60971 0.05472,0.35958 -0.03908,0.80514 -0.187604,0.89112 -0.766051,1.30541 -0.578446,0.40648 -1.500834,0.40648 h -0.7426 z m 1.16471,-3.0173 q 0.29704,0 0.492461,-0.17197 0.203238,-0.17979 0.281406,-0.53936 0.07817,-0.36739 -0.0469,-0.53936 -0.125069,-0.17197 -0.422109,-0.17197 h -0.523729 l -0.304857,1.42266 z m -2.384016,-1.60245 q -0.07817,0.0156 -0.187604,0.0313 -0.0938,0.0156 -0.226689,0.0235 -0.132886,0.008 -0.304856,0.008 -0.179788,0 -0.312674,-0.008 -0.12507,-0.008 -0.211055,-0.0235 -0.101619,-0.0156 -0.179787,-0.0313 l 0.257955,-1.21161 q 0.07817,-0.0156 0.187605,-0.0313 0.0938,-0.0156 0.226688,-0.0234 0.132887,-0.008 0.312674,-0.008 0.171971,0 0.29704,0.008 0.132886,0.008 0.218872,0.0234 0.101619,0.0156 0.179787,0.0313 z m -0.977105,4.62757 q -0.08599,0.0156 -0.195421,0.0313 -0.0938,0.0156 -0.226689,0.0234 -0.132886,0.008 -0.304857,0.008 -0.179787,0 -0.312674,-0.008 -0.125069,-0.008 -0.211054,-0.0234 -0.101619,-0.0156 -0.171971,-0.0313 l 0.859853,-4.04131 q 0.07035,-0.0156 0.179787,-0.0313 0.08599,-0.0156 0.218872,-0.0235 0.140703,-0.008 0.320491,-0.008 0.17197,0 0.304856,0.008 0.132887,0.008 0.218872,0.0235 0.101619,0.0156 0.179788,0.0313 z m -3.614192,-1.61809 q -0.03127,0.18761 0,0.31268 0.03908,0.11725 0.117253,0.1876 0.08598,0.0703 0.203237,0.10162 0.12507,0.0234 0.27359,0.0234 0.164154,0 0.312674,-0.0234 0.14852,-0.0313 0.257956,-0.0704 0.132886,-0.0391 0.234505,-0.0938 0.132886,0.13288 0.203238,0.39866 0.07817,0.26577 0.03127,0.53936 -0.14852,0.10943 -0.359574,0.19542 -0.179788,0.0703 -0.453377,0.12507 -0.27359,0.0625 -0.640982,0.0625 -1.000556,0 -1.391398,-0.57844 -0.390842,-0.57845 -0.14852,-1.70407 0.234505,-1.08655 0.820769,-1.56337 0.586263,-0.47683 1.469566,-0.47683 0.375209,0 0.664432,0.10162 0.29704,0.10162 0.476828,0.31267 0.187604,0.21106 0.250139,0.52373 0.06253,0.31267 -0.02345,0.73478 -0.0938,0.4143 -0.179787,0.6488 -0.0469,0.1407 -0.08599,0.24232 z m 1.070908,-1.03964 q 0.0469,-0.2345 -0.01563,-0.38302 -0.05472,-0.15634 -0.257956,-0.15634 -0.0938,0 -0.179787,0.0313 -0.08599,0.0313 -0.171971,0.11725 -0.07817,0.086 -0.156337,0.24232 -0.07035,0.14852 -0.132886,0.38303 H 90.1384 q 0.01563,-0.0625 0.02345,-0.11725 0.01563,-0.0547 0.03127,-0.11726 z m -4.853528,-1.10999 q 0.203238,-0.20324 0.46901,-0.30486 0.265773,-0.10943 0.594081,-0.10943 0.304857,0 0.547179,0.12507 0.242322,0.11725 0.383025,0.38302 0.14852,0.26578 0.171971,0.6957 0.02345,0.42993 -0.109436,1.04746 -0.132886,0.6019 -0.328308,1.00056 -0.187604,0.39866 -0.437743,0.64098 -0.242322,0.2345 -0.539362,0.33612 -0.289223,0.0938 -0.609714,0.0938 -0.328307,0 -0.547179,-0.10162 -0.211055,-0.10943 -0.336124,-0.29704 l -0.429927,2.00893 q -0.0938,0.0156 -0.203238,0.0313 -0.0938,0.0156 -0.226688,0.0234 -0.132887,0.008 -0.29704,0.008 -0.164154,0 -0.289224,-0.008 -0.132886,-0.008 -0.218871,-0.0234 -0.101619,-0.0156 -0.179788,-0.0313 l 1.235062,-5.79228 q 0.08599,-0.0156 0.195421,-0.0313 0.0938,-0.0156 0.218871,-0.0235 0.132887,-0.008 0.297041,-0.008 0.164153,0 0.281406,0.008 0.117253,0.008 0.203238,0.0235 l 0.164154,0.0235 z m 0.554996,1.74316 q 0.07035,-0.32831 0.08598,-0.53936 0.01563,-0.21106 -0.02345,-0.32831 -0.03127,-0.11725 -0.117253,-0.16416 -0.07817,-0.0469 -0.203238,-0.0469 -0.179788,0 -0.336124,0.14071 -0.14852,0.1407 -0.218872,0.39866 l -0.211055,1.00837 q -0.02345,0.11725 -0.02345,0.22669 0,0.10943 0.03127,0.19542 0.03908,0.086 0.109436,0.1407 0.07035,0.0547 0.187604,0.0547 0.117253,0 0.211055,-0.0313 0.101619,-0.0391 0.187604,-0.15633 0.08598,-0.11726 0.164154,-0.32831 0.07817,-0.21887 0.156337,-0.57063 z m -2.391833,-2.60301 q -0.07817,0.0156 -0.187604,0.0313 -0.0938,0.0156 -0.226688,0.0235 -0.132887,0.008 -0.304857,0.008 -0.179788,0 -0.312674,-0.008 -0.12507,-0.008 -0.211055,-0.0235 -0.101619,-0.0156 -0.179787,-0.0313 l 0.257955,-1.21161 q 0.07817,-0.0156 0.187605,-0.0313 0.0938,-0.0156 0.226688,-0.0234 0.132887,-0.008 0.312674,-0.008 0.171971,0 0.29704,0.008 0.132886,0.008 0.218872,0.0234 0.101619,0.0156 0.179787,0.0313 z m -0.977105,4.62757 q -0.08599,0.0156 -0.195421,0.0313 -0.0938,0.0156 -0.226689,0.0234 -0.132886,0.008 -0.304857,0.008 -0.179787,0 -0.312674,-0.008 -0.125069,-0.008 -0.211054,-0.0234 -0.101619,-0.0156 -0.171971,-0.0313 l 0.859853,-4.04131 q 0.07035,-0.0156 0.179787,-0.0313 0.08599,-0.0156 0.218872,-0.0235 0.140703,-0.008 0.320491,-0.008 0.17197,0 0.304857,0.008 0.132886,0.008 0.218871,0.0235 0.101619,0.0156 0.179788,0.0313 z m -2.605086,-5.56559 q 0.828586,0 1.188161,0.39866 0.359575,0.39866 0.203238,1.15689 -0.08599,0.41429 -0.328308,0.70352 -0.234505,0.28922 -0.562813,0.46901 0.328308,0.16415 0.476828,0.48464 0.14852,0.31267 0.0469,0.80514 -0.179787,0.82858 -0.750417,1.21942 -0.562813,0.39085 -1.438299,0.39085 H 76.33263 l 1.195977,-5.62813 z m -0.750417,2.25125 q 0.257956,0 0.42211,-0.15634 0.171971,-0.16415 0.234505,-0.45338 0.132887,-0.60971 -0.398659,-0.60971 h -0.633164 l -0.257956,1.21943 z m -0.476827,2.33724 q 0.312674,0 0.500278,-0.14852 0.195421,-0.14852 0.273589,-0.49247 0.07035,-0.35175 -0.06253,-0.49246 -0.12507,-0.14852 -0.437744,-0.14852 h -0.656615 l -0.273589,1.28197 z"
           inkscape:connector-curvature="0" />
      </g>
    </g>
  </g>
</svg>
