<?xml version="1.0" encoding="UTF-8" standalone="no"?>
<!-- Created with Inkscape (http://www.inkscape.org/) -->

<svg
   xmlns:dc="http://purl.org/dc/elements/1.1/"
   xmlns:cc="http://creativecommons.org/ns#"
   xmlns:rdf="http://www.w3.org/1999/02/22-rdf-syntax-ns#"
   xmlns:svg="http://www.w3.org/2000/svg"
   xmlns="http://www.w3.org/2000/svg"
   xmlns:sodipodi="http://sodipodi.sourceforge.net/DTD/sodipodi-0.dtd"
   xmlns:inkscape="http://www.inkscape.org/namespaces/inkscape"
   width="38.362045mm"
   height="8.2020836mm"
   viewBox="0 0 38.362045 8.2020836"
   version="1.1"
   id="svg2963"
   inkscape:version="0.92.4 (5da689c313, 2019-01-14)"
   sodipodi:docname="logo-footer.svg">
  <defs
     id="defs2957" />
  <sodipodi:namedview
     id="base"
     pagecolor="#ffffff"
     bordercolor="#666666"
     borderopacity="1.0"
     inkscape:pageopacity="0.0"
     inkscape:pageshadow="2"
     inkscape:zoom="2.8284271"
     inkscape:cx="57.237096"
     inkscape:cy="-55.130743"
     inkscape:document-units="mm"
     inkscape:current-layer="layer1"
     showgrid="false"
     fit-margin-top="0"
     fit-margin-left="0"
     fit-margin-right="0"
     fit-margin-bottom="0"
     inkscape:window-width="1366"
     inkscape:window-height="705"
     inkscape:window-x="-8"
     inkscape:window-y="-8"
     inkscape:window-maximized="1" />
  <metadata
     id="metadata2960">
    <rdf:RDF>
      <cc:Work
         rdf:about="">
        <dc:format>image/svg+xml</dc:format>
        <dc:type
           rdf:resource="http://purl.org/dc/dcmitype/StillImage" />
        <dc:title></dc:title>
      </cc:Work>
    </rdf:RDF>
  </metadata>
  <g
     inkscape:label="Layer 1"
     inkscape:groupmode="layer"
     id="layer1"
     transform="translate(67.235291,-105.89524)">
    <rect
       style="fill:none;fill-rule:evenodd;stroke-width:0.11506252"
       id="rect3620"
       width="8.2020836"
       height="8.2020836"
       x="-67.235291"
       y="105.89524"
       inkscape:export-filename="C:\Users\Thiago Campos\Desktop\favico.png"
       inkscape:export-xdpi="92"
       inkscape:export-ydpi="92" />
    <g
       aria-label="v1.0.0"
       transform="matrix(1,0,-0.21023576,1,59.775935,-294.17511)"
       style="font-style:normal;font-variant:normal;font-weight:bold;font-stretch:normal;font-size:3.35905147px;line-height:1.25;font-family:'Open Sans';-inkscape-font-specification:'Open Sans Bold';text-align:end;letter-spacing:-0.04198815px;word-spacing:0px;text-anchor:end;fill:#ffffff;fill-opacity:1;stroke:none;stroke-width:0.08397629"
       id="text3628" />
    <g
       transform="matrix(0.68739213,0,0,0.68739213,17.072318,-138.53413)"
       id="g3644">
      <path
         inkscape:connector-curvature="0"
         id="path3630"
         d="m -114.26818,366.19671 c -0.20666,-0.0681 -0.39906,-0.19918 -0.65134,-0.44381 -0.19011,-0.18435 -0.31182,-0.35215 -0.38053,-0.52464 -0.0334,-0.0838 -0.0362,-0.1013 -0.0362,-0.22182 8e-5,-0.1492 0.0163,-0.21685 0.0845,-0.35312 0.0617,-0.12313 0.11497,-0.18772 0.31895,-0.38643 l 0.18115,-0.17648 -9e-4,-0.0567 c -4.8e-4,-0.0312 -0.012,-0.16372 -0.0256,-0.29451 l -0.0247,-0.23778 -0.20476,-0.0414 c -0.22318,-0.0451 -0.26822,-0.0627 -0.30208,-0.11777 -0.0123,-0.02 -0.061,-0.15671 -0.10827,-0.30373 -0.0472,-0.14703 -0.0984,-0.30573 -0.11362,-0.35268 -0.0305,-0.0939 -0.0333,-0.13521 -0.0129,-0.18972 0.007,-0.0199 0.10135,-0.12996 0.20863,-0.24457 0.29105,-0.31093 0.36805,-0.40436 0.36792,-0.44642 -1.3e-4,-0.0447 -0.0426,-0.42843 -0.048,-0.43385 -0.002,-0.002 -0.0623,0.0341 -0.13356,0.0807 -0.13298,0.087 -0.14322,0.0908 -0.279,0.10183 -0.0938,0.008 -0.64624,-0.011 -0.84863,-0.0286 -0.55744,-0.0485 -1.15152,-0.15655 -1.74135,-0.31659 -0.4774,-0.12953 -1.03246,-0.31691 -1.15346,-0.38938 -0.0818,-0.049 -0.1795,-0.14443 -0.23753,-0.23207 -0.11176,-0.16876 -0.1573,-0.33281 -0.3079,-1.10908 -0.0273,-0.14077 -0.0609,-0.30714 -0.0746,-0.3697 -0.072,-0.32844 0.004,-0.57144 0.22499,-0.72381 0.10585,-0.0728 0.34236,-0.1664 1.69302,-0.66982 1.58297,-0.59002 1.84964,-0.68609 2.01969,-0.72762 0.49571,-0.12104 0.94649,-0.13232 1.81356,-0.0454 0.69585,0.0698 1.55111,0.17058 1.65511,0.19506 0.22029,0.0519 0.4031,0.23067 0.45989,0.4498 0.0259,0.0999 0.0266,1.30889 9e-4,1.44396 -0.0189,0.0989 -0.0582,0.18686 -0.13683,0.30574 -0.11525,0.17424 -0.19376,0.39366 -0.24047,0.67209 -0.0251,0.14964 -0.028,0.57318 -0.005,0.80626 0.0143,0.14792 0.0602,0.48437 0.0808,0.59151 0.0691,0.3603 0.11246,0.56315 0.22764,1.0636 0.25791,1.12056 0.29048,1.32747 0.29016,1.8428 -1.7e-4,0.24712 -0.005,0.36071 -0.0207,0.47777 -0.0991,0.74182 -0.3575,1.23877 -0.72635,1.39685 l -0.0718,0.0308 -0.8304,0.003 -0.8304,0.003 z"
         style="fill:#6c757d;fill-opacity:1;stroke:#6c757d;stroke-width:0.76981777;stroke-miterlimit:4;stroke-dasharray:none;stroke-opacity:1" />
      <path
         style="fill:#6c757d;fill-opacity:1;stroke:#6c757d;stroke-width:0.39687499;stroke-miterlimit:4;stroke-dasharray:none;stroke-opacity:1"
         d="m -114.26818,366.19671 c -0.20666,-0.0681 -0.39906,-0.19918 -0.65134,-0.44381 -0.19011,-0.18435 -0.31182,-0.35215 -0.38053,-0.52464 -0.0334,-0.0838 -0.0362,-0.1013 -0.0362,-0.22182 8e-5,-0.1492 0.0163,-0.21685 0.0845,-0.35312 0.0617,-0.12313 0.11497,-0.18772 0.31895,-0.38643 l 0.18115,-0.17648 -8.9e-4,-0.0567 c -4.8e-4,-0.0312 -0.012,-0.16372 -0.0256,-0.29451 l -0.0247,-0.23778 -0.20476,-0.0414 c -0.22318,-0.0451 -0.26822,-0.0627 -0.30208,-0.11777 -0.0123,-0.02 -0.061,-0.15671 -0.10827,-0.30373 -0.0472,-0.14703 -0.0984,-0.30573 -0.11362,-0.35268 -0.0305,-0.0939 -0.0333,-0.13521 -0.0129,-0.18972 0.007,-0.0199 0.10135,-0.12996 0.20863,-0.24457 0.29105,-0.31093 0.36805,-0.40436 0.36792,-0.44642 -1.3e-4,-0.0447 -0.0426,-0.42843 -0.048,-0.43385 -0.002,-0.002 -0.0623,0.0341 -0.13356,0.0807 -0.13298,0.087 -0.14322,0.0908 -0.279,0.10183 -0.0938,0.008 -0.64625,-0.011 -0.84864,-0.0286 -0.55744,-0.0485 -1.15152,-0.15655 -1.74135,-0.31659 -0.4774,-0.12953 -1.03246,-0.31691 -1.15346,-0.38938 -0.0818,-0.049 -0.1795,-0.14443 -0.23753,-0.23207 -0.11176,-0.16876 -0.1573,-0.33281 -0.3079,-1.10908 -0.0273,-0.14077 -0.0609,-0.30714 -0.0746,-0.3697 -0.072,-0.32844 0.004,-0.57144 0.22499,-0.72381 0.10585,-0.0728 0.34236,-0.1664 1.69302,-0.66982 1.58297,-0.59002 1.84964,-0.68609 2.01969,-0.72762 0.49571,-0.12104 0.94649,-0.13232 1.81356,-0.0454 0.69585,0.0698 1.55111,0.17058 1.65511,0.19506 0.22029,0.0519 0.4031,0.23067 0.45989,0.4498 0.0259,0.0999 0.0266,1.30889 8.9e-4,1.44396 -0.0189,0.0989 -0.0582,0.18686 -0.13683,0.30574 -0.11525,0.17424 -0.19376,0.39366 -0.24047,0.67209 -0.0251,0.14964 -0.028,0.57318 -0.005,0.80626 0.0143,0.14792 0.0602,0.48437 0.0808,0.59151 0.0691,0.3603 0.11246,0.56315 0.22764,1.0636 0.25791,1.12056 0.29048,1.32747 0.29016,1.8428 -1.7e-4,0.24712 -0.005,0.36071 -0.0207,0.47777 -0.0991,0.74182 -0.3575,1.23877 -0.72635,1.39685 l -0.0718,0.0308 -0.8304,0.003 -0.8304,0.003 z"
         id="path3632"
         inkscape:connector-curvature="0" />
      <path
         inkscape:connector-curvature="0"
         style="fill:#ffffff;fill-opacity:1;stroke:#000000;stroke-width:0.01137533;stroke-opacity:1"
         d="m -115.59376,361.13598 c -8e-4,-0.0354 -0.22439,-1.52245 -0.22971,-1.52777 -0.003,-0.003 -0.17428,-0.0336 -0.37996,-0.0674 -0.62796,-0.10317 -1.81178,-0.31133 -2.77924,-0.48869 -0.22176,-0.0407 -0.40567,-0.0715 -0.40868,-0.0684 -0.007,0.007 0.0157,0.15276 0.0437,0.27573 0.0124,0.0546 0.0539,0.26045 0.0922,0.45753 0.0769,0.39535 0.12537,0.58094 0.17307,0.66234 0.0411,0.0702 0.10829,0.10235 0.46882,0.22459 1.06685,0.36172 1.97413,0.53358 2.87512,0.54459 0.10954,10e-4 0.14495,-0.002 0.14471,-0.0125 z"
         id="path3640" />
    </g>
    <g
       style="fill:#ffffff"
       id="g3648"
       transform="matrix(0.77500001,0,0,0.77500001,27.085402,-170.83035)">
      <path
         inkscape:connector-curvature="0"
         id="path3646"
         d="m -120.63263,363.33248 v 1.21697 1.21751 h 0.30127 0.30179 v -1.21751 -1.21697 h -0.30179 z m 1.01234,0 v 1.2175 1.21698 l 0.20153,-0.003 0.20206,-0.003 0.003,-1.21441 0.003,-1.21438 h -0.20515 z m 0.80718,0 v 1.20975 c 0,0.66527 0.004,1.21296 0.008,1.21698 0.005,0.005 0.14104,0.007 0.30386,0.005 l 0.29662,-0.003 0.003,-1.21441 0.003,-1.21438 h -0.30696 z m 1.02423,0 v 1.21697 1.21751 h 0.19895 0.19896 v -1.21751 -1.21697 h -0.19896 z"
         style="fill:#6c757d;fill-opacity:1;stroke:#000000;stroke-width:0.01137533;stroke-opacity:1" />
    </g>
    <path
       inkscape:connector-curvature="0"
       style="fill:#ececec;fill-opacity:1;stroke:#000000;stroke-width:0.00781931;stroke-opacity:1"
       d="m -60.297057,112.90127 c 0.0905,-0.0574 0.186869,-0.2442 0.24487,-0.47478 0.0487,-0.19383 0.0732,-0.47019 0.0591,-0.66971 -0.0167,-0.23754 -0.0434,-0.3813 -0.18105,-0.97567 -0.17057,-0.73647 -0.22281,-1.05151 -0.24131,-1.45526 -0.009,-0.18968 -0.002,-0.31185 0.024,-0.46631 0.009,-0.0498 0.0145,-0.0914 0.0133,-0.0926 -0.001,-0.001 -0.30118,0.20184 -0.66667,0.45117 -0.36549,0.24932 -0.66925,0.45613 -0.67503,0.45957 -0.009,0.005 -0.005,0.0441 0.016,0.22018 l 0.0265,0.21394 0.0544,0.009 c 0.0299,0.005 0.11072,0.0186 0.17953,0.0295 0.0688,0.0111 0.21308,0.0344 0.32059,0.052 0.10752,0.0175 0.23181,0.0367 0.27621,0.0426 0.0646,0.009 0.086,0.0148 0.10741,0.0311 0.0536,0.0408 0.0573,0.0603 0.05,0.26277 -0.0129,0.35904 -0.0759,0.56244 -0.2219,0.71688 -0.0341,0.0361 -0.0768,0.0758 -0.0949,0.0882 -0.0504,0.0346 -0.13568,0.0754 -0.18885,0.0902 l -0.0479,0.0133 -0.15274,-0.0301 c -0.084,-0.0166 -0.15414,-0.0285 -0.15585,-0.0265 -10e-4,0.002 10e-4,0.0476 0.008,0.10133 0.006,0.0538 0.0115,0.14525 0.0126,0.20331 0.003,0.14971 -6.87e-4,0.15603 -0.19371,0.34795 -0.16986,0.16913 -0.19827,0.21035 -0.205289,0.29775 -0.003,0.0448 -10e-4,0.055 0.0238,0.10797 0.0363,0.0763 0.0783,0.13303 0.16527,0.22263 0.107109,0.11041 0.22075,0.19589 0.30947,0.23278 l 0.043,0.0179 0.528231,3.4e-4 0.52823,3.2e-4 0.0352,-0.0223 z"
       id="path3634" />
    <path
       inkscape:connector-curvature="0"
       style="fill:#ececec;fill-opacity:1;stroke:#000000;stroke-width:0.00781931;stroke-opacity:1"
       d="m -61.198747,111.13187 c 0.117009,-0.0558 0.18626,-0.17482 0.20851,-0.35828 l 0.005,-0.0427 -0.0174,0.0153 c -0.01,0.008 -0.0687,0.0619 -0.13146,0.11889 -0.0745,0.0676 -0.12592,0.10812 -0.14821,0.11674 -0.0341,0.0132 -0.0349,0.0131 -0.37532,-0.0469 -0.18765,-0.0331 -0.34523,-0.0601 -0.35017,-0.0601 -0.011,9e-5 0.0311,0.14057 0.0446,0.14892 0.008,0.005 0.0964,0.0229 0.5039,0.10127 0.086,0.0166 0.1682,0.0304 0.18264,0.0307 0.0145,3.7e-4 0.0493,-0.0104 0.0777,-0.0239 z"
       id="path3636" />
    <path
       inkscape:connector-curvature="0"
       style="fill:#ececec;fill-opacity:1;stroke:#000000;stroke-width:0.00781931;stroke-opacity:1"
       d="m -61.250367,110.59173 c 0.0645,-0.0612 0.11421,-0.11214 0.110599,-0.1133 -0.003,-0.001 -0.142039,-0.0232 -0.307619,-0.0489 l -0.301051,-0.0468 -0.0266,0.0291 c -0.0146,0.016 -0.0581,0.0636 -0.0967,0.10572 -0.0386,0.0421 -0.0688,0.0777 -0.0672,0.079 0.002,0.002 0.541001,0.10257 0.564761,0.10547 0.003,4.5e-4 0.0594,-0.0492 0.12386,-0.11037 z"
       id="path3638" />
    <path
       inkscape:connector-curvature="0"
       style="fill:#ececec;fill-opacity:1;stroke:#000000;stroke-width:0.00781931;stroke-opacity:1"
       d="m -61.977567,109.52121 c 0.0658,-0.044 0.27977,-0.18944 0.47545,-0.32321 0.19567,-0.13376 0.57619,-0.39385 0.84558,-0.57797 0.53895,-0.36835 0.50725,-0.34174 0.52294,-0.43884 0.0104,-0.0641 0.01,-0.82032 -4.5e-4,-0.85783 -0.01031,-0.0371 -0.05401,-0.0737 -0.10526,-0.0882 -0.0504,-0.0143 -0.657111,-0.0902 -0.96568,-0.12082 -0.37387,-0.037 -0.55302,-0.049 -0.742841,-0.0496 -0.3411,-6.9e-4 -0.503619,0.0307 -0.888049,0.17331 -1.71167,0.63492 -1.96658,0.73075 -1.95992,0.73684 0.003,0.003 0.0373,0.0106 0.076,0.0173 0.0387,0.007 0.198799,0.0353 0.35577,0.0637 0.55588,0.10057 1.04187,0.18512 1.50913,0.26255 0.26019,0.0431 0.48276,0.0822 0.494609,0.0869 0.0297,0.0117 0.0661,0.0551 0.0758,0.0905 0.005,0.0162 0.0417,0.26169 0.0827,0.54552 0.0888,0.61459 0.0811,0.56886 0.0941,0.56387 0.005,-0.002 0.0642,-0.0399 0.130009,-0.084 z"
       id="path3642" />
    <rect
       style="fill:none;fill-rule:evenodd;stroke-width:0.30925116"
       id="rect826"
       width="58.687004"
       height="10.583"
       x="-67.112328"
       y="122.46338"
       rx="0.10963503"
       ry="0.11432207" />
    <g
       aria-label="BipeiPostei"
       style="font-style:normal;font-variant:normal;font-weight:normal;font-stretch:normal;font-size:6.05799341px;line-height:1.25;font-family:GloberW01-HeavyItalic;-inkscape-font-specification:GloberW01-HeavyItalic;text-align:start;letter-spacing:-0.07572491px;word-spacing:0px;text-anchor:start;fill:#6c757d;fill-opacity:1;stroke:none;stroke-width:0.15144981"
       id="text10029">
      <path
         id="path906"
         style="font-style:normal;font-variant:normal;font-weight:normal;font-stretch:normal;font-family:GloberW01-HeavyItalic;-inkscape-font-specification:GloberW01-HeavyItalic;text-align:start;text-anchor:start;fill:#6c757d;fill-opacity:1;stroke-width:0.15144981"
         d="m -29.200862,108.63349 q -0.06058,0.0121 -0.145392,0.0242 -0.0727,0.0121 -0.175682,0.0182 -0.102985,0.006 -0.236261,0.006 -0.139334,0 -0.24232,-0.006 -0.09693,-0.006 -0.163566,-0.0182 -0.07875,-0.0121 -0.139334,-0.0242 l 0.199914,-0.93899 q 0.06058,-0.0121 0.145392,-0.0242 0.0727,-0.0121 0.175682,-0.0182 0.102986,-0.006 0.242319,-0.006 0.133276,0 0.230204,0.006 0.102986,0.006 0.169624,0.0182 0.07875,0.0121 0.139334,0.0242 z m -0.757249,3.58633 q -0.06664,0.0121 -0.15145,0.0242 -0.0727,0.0121 -0.175682,0.0182 -0.102986,0.006 -0.236261,0.006 -0.139334,0 -0.24232,-0.006 -0.09693,-0.006 -0.163566,-0.0182 -0.07875,-0.0121 -0.133276,-0.0242 l 0.666379,-3.13198 q 0.05452,-0.0121 0.139334,-0.0242 0.06664,-0.0121 0.169624,-0.0182 0.109044,-0.006 0.248378,-0.006 0.133276,0 0.236262,0.006 0.102985,0.006 0.169623,0.0182 0.07875,0.0121 0.139334,0.0242 z m -2.80097,-1.254 q -0.02423,0.14539 0,0.24232 0.03029,0.0909 0.09087,0.14539 0.06664,0.0545 0.157508,0.0787 0.09693,0.0182 0.21203,0.0182 0.127217,0 0.242319,-0.0182 0.115102,-0.0242 0.199914,-0.0545 0.102986,-0.0303 0.18174,-0.0727 0.102986,0.10298 0.157508,0.30895 0.06058,0.20598 0.02423,0.41801 -0.115102,0.0848 -0.278668,0.15145 -0.139334,0.0545 -0.351364,0.0969 -0.212029,0.0485 -0.496755,0.0485 -0.775423,0 -1.078323,-0.44829 -0.3029,-0.4483 -0.115102,-1.32065 0.18174,-0.84206 0.63609,-1.2116 0.454349,-0.36953 1.138902,-0.36953 0.290784,0 0.51493,0.0787 0.230203,0.0788 0.369537,0.24232 0.145392,0.16357 0.193856,0.40589 0.04846,0.24232 -0.01817,0.56945 -0.0727,0.32107 -0.139334,0.50281 -0.03635,0.10905 -0.06664,0.1878 z m 0.829945,-0.80571 q 0.03635,-0.18174 -0.01212,-0.29685 -0.04241,-0.12116 -0.199914,-0.12116 -0.0727,0 -0.139333,0.0242 -0.06664,0.0242 -0.133276,0.0909 -0.06058,0.0666 -0.12116,0.18779 -0.05452,0.11511 -0.102986,0.29685 h 0.666379 q 0.01212,-0.0485 0.01817,-0.0909 0.01212,-0.0424 0.02423,-0.0909 z m -2.865904,0.94504 q -0.05452,0.24838 0.03029,0.33319 0.09087,0.0788 0.284725,0.0788 0.05452,0 0.102986,0 0.04846,-0.006 0.09087,-0.0121 0.04241,-0.006 0.08481,-0.0182 0.01212,0.0424 0.01817,0.10904 0.0061,0.0545 0,0.13328 0,0.0787 -0.02423,0.18779 -0.03635,0.15145 -0.0727,0.24838 -0.02423,0.0545 -0.04241,0.0909 -0.308958,0.0727 -0.648205,0.0727 -0.321074,0 -0.533104,-0.0606 -0.212029,-0.0666 -0.327131,-0.21203 -0.109044,-0.14539 -0.127218,-0.3756 -0.01817,-0.2302 0.05452,-0.55733 l 0.272609,-1.27218 h -0.418001 q -0.0061,-0.0424 0,-0.10299 0,-0.10298 0.03635,-0.27867 0.01817,-0.0909 0.04241,-0.16356 0.02423,-0.0727 0.04241,-0.12116 0.02423,-0.0606 0.04241,-0.10299 h 0.418001 l 0.115102,-0.55733 q 0.115102,-0.0485 0.254436,-0.0848 0.139334,-0.0363 0.290784,-0.0545 0.151449,-0.0182 0.302899,-0.0182 0.15145,-0.006 0.290784,0.006 l -0.15145,0.70878 h 0.587625 q 0.0061,0.0424 0,0.10299 -0.0061,0.0485 -0.01817,0.12116 -0.0061,0.0666 -0.02423,0.15751 -0.01817,0.0848 -0.04241,0.1575 -0.01817,0.0727 -0.03635,0.12116 -0.02423,0.0606 -0.04241,0.10905 h -0.587626 z m -3.84427,-1.14496 q 0.102986,-0.4907 0.454349,-0.73302 0.357422,-0.24837 1.011685,-0.24837 0.260494,0 0.45435,0.0303 0.199913,0.0303 0.327131,0.0666 0.15145,0.0424 0.254436,0.0969 -0.03029,0.19386 -0.127218,0.38166 -0.09087,0.18779 -0.254436,0.32107 -0.102986,-0.0242 -0.212029,-0.0485 -0.09693,-0.0182 -0.224146,-0.0303 -0.127218,-0.0182 -0.27261,-0.0182 -0.21203,0 -0.308958,0.0545 -0.09087,0.0545 -0.115101,0.1454 -0.01212,0.0666 0.03635,0.10904 0.05452,0.0424 0.145391,0.0787 0.09087,0.0363 0.21203,0.0727 0.12116,0.0363 0.248378,0.0848 0.127218,0.0485 0.24232,0.13328 0.115102,0.0787 0.187797,0.20597 0.07875,0.12116 0.109044,0.29078 0.03029,0.16357 -0.01817,0.38166 -0.102986,0.49675 -0.466465,0.74513 -0.357422,0.24838 -1.048033,0.24838 -0.278668,0 -0.490697,-0.0424 -0.21203,-0.0363 -0.351364,-0.0848 -0.163566,-0.0545 -0.284726,-0.12722 0.04846,-0.2302 0.145392,-0.39377 0.09087,-0.16962 0.24232,-0.30896 0.109044,0.0424 0.230204,0.0666 0.102985,0.0303 0.242319,0.0485 0.145392,0.0182 0.3029,0.0182 0.230204,0 0.33319,-0.0485 0.102985,-0.0485 0.127217,-0.15145 0.01212,-0.0606 -0.03029,-0.10299 -0.04241,-0.0485 -0.127217,-0.0848 -0.07875,-0.0363 -0.187798,-0.0727 -0.109044,-0.0363 -0.224146,-0.0787 -0.127218,-0.0485 -0.254436,-0.12116 -0.12116,-0.0787 -0.205971,-0.19991 -0.08481,-0.12116 -0.12116,-0.28473 -0.03029,-0.16962 0.01817,-0.39983 z m -3.44236,0.6058 q 0.09693,-0.45435 0.266552,-0.75725 0.169624,-0.30896 0.399828,-0.4907 0.236261,-0.18779 0.533103,-0.26049 0.296842,-0.0787 0.642147,-0.0787 0.345306,0 0.6058,0.10904 0.260493,0.10299 0.411943,0.32713 0.157508,0.21809 0.193856,0.55734 0.04241,0.33319 -0.05452,0.78754 -0.09693,0.45435 -0.266552,0.75725 -0.163566,0.3029 -0.399827,0.48464 -0.230204,0.17568 -0.527046,0.25443 -0.290783,0.0727 -0.636089,0.0727 -0.345306,0 -0.611857,-0.10299 -0.260494,-0.10904 -0.418002,-0.32107 -0.15145,-0.21809 -0.193856,-0.55128 -0.04241,-0.33319 0.05452,-0.78754 z m 1.877978,0.0909 q 0.05452,-0.25443 0.06664,-0.418 0.01212,-0.16357 -0.01817,-0.25444 -0.02423,-0.0969 -0.08481,-0.13327 -0.06058,-0.0424 -0.157508,-0.0424 -0.09693,0 -0.181739,0.0424 -0.07875,0.0363 -0.145392,0.13327 -0.06664,0.0909 -0.127218,0.25444 -0.06058,0.16357 -0.115102,0.418 -0.05452,0.24838 -0.06664,0.41194 -0.0061,0.16357 0.01817,0.2605 0.03029,0.0969 0.09693,0.13933 0.06664,0.0363 0.163566,0.0363 0.09693,0 0.175682,-0.0363 0.07875,-0.0424 0.145391,-0.13933 0.06664,-0.0969 0.12116,-0.2605 0.05452,-0.16356 0.109044,-0.41194 z m -4.470326,1.55688 q -0.06664,0.0182 -0.157508,0.0303 -0.07875,0.0121 -0.187798,0.0182 -0.102986,0.006 -0.236262,0.006 -0.139334,0 -0.248377,-0.006 -0.102986,-0.006 -0.175682,-0.0182 -0.08481,-0.0121 -0.145392,-0.0303 l 0.914757,-4.30724 h 1.726528 q 0.351364,0 0.599741,0.10905 0.254436,0.10904 0.399828,0.30895 0.145392,0.19386 0.18174,0.47253 0.04241,0.27867 -0.03029,0.62397 -0.145392,0.69061 -0.593684,1.01169 -0.448291,0.31501 -1.163134,0.31501 h -0.57551 z m 0.902641,-2.33839 q 0.230203,0 0.381653,-0.13328 0.157508,-0.13933 0.218088,-0.418 0.06058,-0.28472 -0.03635,-0.418 -0.09693,-0.13327 -0.327132,-0.13327 h -0.405885 l -0.236262,1.10255 z m -1.847594,-1.24189 q -0.06058,0.0121 -0.145392,0.0242 -0.0727,0.0121 -0.175682,0.0182 -0.102985,0.006 -0.236261,0.006 -0.139334,0 -0.24232,-0.006 -0.09693,-0.006 -0.163566,-0.0182 -0.07875,-0.0121 -0.139334,-0.0242 l 0.199914,-0.93899 q 0.06058,-0.0121 0.145392,-0.0242 0.0727,-0.0121 0.175682,-0.0182 0.102986,-0.006 0.24232,-0.006 0.133275,0 0.230203,0.006 0.102986,0.006 0.169624,0.0182 0.07875,0.0121 0.139334,0.0242 z m -0.757249,3.58633 q -0.06664,0.0121 -0.15145,0.0242 -0.0727,0.0121 -0.175682,0.0182 -0.102986,0.006 -0.236261,0.006 -0.139334,0 -0.24232,-0.006 -0.09693,-0.006 -0.163566,-0.0182 -0.07875,-0.0121 -0.133276,-0.0242 l 0.666379,-3.13198 q 0.05452,-0.0121 0.139334,-0.0242 0.06664,-0.0121 0.169624,-0.0182 0.109044,-0.006 0.248378,-0.006 0.133276,0 0.236262,0.006 0.102985,0.006 0.169623,0.0182 0.07875,0.0121 0.139334,0.0242 z m -2.80097,-1.254 q -0.02423,0.14539 0,0.24232 0.03029,0.0909 0.09087,0.14539 0.06664,0.0545 0.157508,0.0787 0.09693,0.0182 0.21203,0.0182 0.127218,0 0.242319,-0.0182 0.115102,-0.0242 0.199914,-0.0545 0.102986,-0.0303 0.18174,-0.0727 0.102986,0.10298 0.157508,0.30895 0.06058,0.20598 0.02423,0.41801 -0.115102,0.0848 -0.278668,0.15145 -0.139334,0.0545 -0.351364,0.0969 -0.212029,0.0485 -0.496755,0.0485 -0.775423,0 -1.078323,-0.44829 -0.3029,-0.4483 -0.115102,-1.32065 0.18174,-0.84206 0.63609,-1.2116 0.454349,-0.36953 1.138902,-0.36953 0.290784,0 0.51493,0.0787 0.230204,0.0788 0.369537,0.24232 0.145392,0.16357 0.193856,0.40589 0.04846,0.24232 -0.01817,0.56945 -0.0727,0.32107 -0.139334,0.50281 -0.03635,0.10905 -0.06664,0.1878 z m 0.829945,-0.80571 q 0.03635,-0.18174 -0.01212,-0.29685 -0.04241,-0.12116 -0.199914,-0.12116 -0.0727,0 -0.139333,0.0242 -0.06664,0.0242 -0.133276,0.0909 -0.06058,0.0666 -0.12116,0.18779 -0.05452,0.11511 -0.102986,0.29685 h 0.666379 q 0.01212,-0.0485 0.01817,-0.0909 0.01212,-0.0424 0.02423,-0.0909 z m -3.761446,-0.86024 q 0.157508,-0.15751 0.36348,-0.23626 0.205972,-0.0848 0.460407,-0.0848 0.236262,0 0.42406,0.0969 0.187798,0.0909 0.296842,0.29684 0.115102,0.20597 0.133276,0.53916 0.01817,0.33319 -0.08481,0.81177 -0.102986,0.46646 -0.254436,0.77542 -0.145392,0.30896 -0.339248,0.49676 -0.187798,0.18174 -0.418001,0.26049 -0.224146,0.0727 -0.472524,0.0727 -0.254435,0 -0.424059,-0.0788 -0.163566,-0.0848 -0.260494,-0.2302 l -0.33319,1.5569 q -0.0727,0.0121 -0.157507,0.0242 -0.0727,0.0121 -0.175682,0.0182 -0.102986,0.006 -0.230204,0.006 -0.127218,0 -0.224146,-0.006 -0.102986,-0.006 -0.169624,-0.0182 -0.07875,-0.0121 -0.139333,-0.0242 l 0.957163,-4.48897 q 0.06664,-0.0121 0.151449,-0.0242 0.0727,-0.0121 0.169624,-0.0182 0.102986,-0.006 0.230204,-0.006 0.127218,0 0.218088,0.006 0.09087,0.006 0.157508,0.0182 l 0.127217,0.0182 z m 0.430118,1.35093 q 0.05452,-0.25443 0.06664,-0.418 0.01212,-0.16356 -0.01817,-0.25443 -0.02423,-0.0909 -0.09087,-0.12722 -0.06058,-0.0363 -0.157508,-0.0363 -0.139334,0 -0.260494,0.10904 -0.115101,0.10905 -0.169623,0.30896 l -0.163566,0.78148 q -0.01817,0.0909 -0.01817,0.17568 0,0.0848 0.02423,0.15145 0.03029,0.0666 0.08481,0.10905 0.05452,0.0424 0.145392,0.0424 0.09087,0 0.163565,-0.0242 0.07875,-0.0303 0.145392,-0.12116 0.06664,-0.0909 0.127218,-0.25443 0.06058,-0.16963 0.12116,-0.44224 z m -1.853651,-2.01731 q -0.06058,0.0121 -0.145392,0.0242 -0.0727,0.0121 -0.175682,0.0182 -0.102986,0.006 -0.236262,0.006 -0.139334,0 -0.24232,-0.006 -0.09693,-0.006 -0.163565,-0.0182 -0.07875,-0.0121 -0.139334,-0.0242 l 0.199914,-0.93899 q 0.06058,-0.0121 0.145391,-0.0242 0.0727,-0.0121 0.175682,-0.0182 0.102986,-0.006 0.24232,-0.006 0.133276,0 0.230204,0.006 0.102986,0.006 0.169624,0.0182 0.07875,0.0121 0.139333,0.0242 z m -0.75725,3.58633 q -0.06664,0.0121 -0.151449,0.0242 -0.0727,0.0121 -0.175682,0.0182 -0.102986,0.006 -0.236262,0.006 -0.139334,0 -0.24232,-0.006 -0.09693,-0.006 -0.163566,-0.0182 -0.07875,-0.0121 -0.133275,-0.0242 l 0.666379,-3.13198 q 0.05452,-0.0121 0.139334,-0.0242 0.06664,-0.0121 0.169624,-0.0182 0.109043,-0.006 0.248377,-0.006 0.133276,0 0.236262,0.006 0.102986,0.006 0.169624,0.0182 0.07875,0.0121 0.139334,0.0242 z m -2.018921,-4.31329 q 0.642148,0 0.920815,0.30896 0.278668,0.30896 0.157508,0.89658 -0.06664,0.32108 -0.254436,0.54522 -0.181739,0.22415 -0.436175,0.36348 0.254436,0.12722 0.369537,0.3756 0.115102,0.24232 0.03635,0.62397 -0.139333,0.64215 -0.581567,0.94505 -0.436175,0.3029 -1.114671,0.3029 h -1.877978 l 0.926873,-4.36176 z m -0.581567,1.7447 q 0.199914,0 0.327132,-0.12116 0.133275,-0.12721 0.181739,-0.35136 0.102986,-0.47252 -0.308957,-0.47252 h -0.490698 l -0.199914,0.94504 z m -0.369538,1.81134 q 0.24232,0 0.387712,-0.1151 0.15145,-0.1151 0.21203,-0.38165 0.05452,-0.27261 -0.04846,-0.38165 -0.09693,-0.11511 -0.339248,-0.11511 h -0.508871 l -0.21203,0.99351 z" />
    </g>
  </g>
</svg>
